<svg width="225" height="77" viewBox="0 0 225 77" fill="none" xmlns="http://www.w3.org/2000/svg">
<path d="M43.9444 54.9445C44.2067 53.3707 44 51.5883 44 50C40.5735 39.7204 18.6667 47.2032 10.4444 43.4445C5.05657 40.9814 -1.00359 32.2085 3.61111 26.0556C5.25625 23.862 10.7943 25 13.1111 25C13.8259 25 11.6274 24.8178 11.0556 24.3889C9.63382 23.3226 10 21.0895 10 19.5556C10 15.0512 11.465 8.25128 16.1111 6.44445C28.0325 1.80835 40.0833 2.68989 52.3889 5.55556C54.0157 5.93441 64.5725 9.94257 66 7.44445C66.885 5.89577 67.7908 3.85048 69.4444 3.00001C74.2211 0.54343 82.4758 2.20302 87.4444 3.22223C92.0486 4.16666 96.3674 4.3235 100.667 6.44445C106.245 9.19642 105.064 13.5375 110.222 9.77778C116.907 4.90579 120.019 4.00001 127.889 4.00001C132.662 4.00001 137.494 4.02438 142 5.8889C148.002 8.37245 151.953 11.7917 158.611 12.5C165.426 13.225 172.068 15.5455 178.722 17.1111C185.004 18.5892 190.066 23.3786 196.222 24.7778C202.153 26.1257 212.518 27.8306 213 35.6667C213.451 43.0008 212.449 46 220.444 46C226.89 46 220.617 55.1158 219.056 57.5556C216.823 61.0442 215.168 71.2496 210.944 72.8333C209.025 73.5533 205.679 73 203.667 73C196.607 73 189.604 73.0784 182.611 71.9445C179.891 71.5034 177.175 70.1434 176 67.5C175.785 67.017 174.06 64.0463 174 65C173.59 71.5637 172.161 72.7707 165.111 73.7778C157.674 74.8402 149.373 74.0902 141.889 74C130.572 73.8637 123.182 70.1789 114 64.7778C112.771 64.055 109.762 55.0568 108.944 59.5556C107.921 65.1868 103.71 66.4505 99.7222 69.5C95.5409 72.6975 93.7782 76.0758 87.5556 74.9445C83.7777 74.2576 81.0988 70.1235 79 67.5C77.7105 65.8881 77 59.9345 77 64.7778C77 78.859 59.4966 69.6835 51.5 68C46.4643 66.9399 42 64.1727 42 58.5C42 56.5982 43.6837 56.5091 43.9444 54.9445Z" stroke="#19D6EF" stroke-width="3" stroke-linecap="round"/>
</svg>
