<svg width="223" height="75" viewBox="0 0 223 75" fill="none" xmlns="http://www.w3.org/2000/svg">
<path d="M42.9444 53.9445C43.2067 52.3707 43 50.5883 43 49C39.5735 38.7204 17.6667 46.2032 9.44444 42.4445C4.05657 39.9814 -2.00359 31.2085 2.61111 25.0556C4.25625 22.862 9.79431 24 12.1111 24C12.8259 24 10.6274 23.8178 10.0556 23.3889C8.63382 22.3226 9 20.0895 9 18.5556C9 14.0512 10.465 7.25128 15.1111 5.44445C27.0325 0.808352 39.0833 1.68989 51.3889 4.55556C53.0157 4.93441 63.5725 8.94257 65 6.44445C65.885 4.89577 66.7908 2.85048 68.4444 2.00001C73.2211 -0.45657 81.4758 1.20302 86.4444 2.22223C91.0486 3.16666 95.3674 3.3235 99.6667 5.44445C105.245 8.19642 104.064 12.5375 109.222 8.77778C115.907 3.90579 119.019 3.00001 126.889 3.00001C131.662 3.00001 136.494 3.02438 141 4.8889C147.002 7.37245 150.953 10.7917 157.611 11.5C164.426 12.225 171.068 14.5455 177.722 16.1111C184.004 17.5892 189.066 22.3786 195.222 23.7778C201.153 25.1257 211.518 26.8306 212 34.6667C212.451 42.0008 211.449 45 219.444 45C225.89 45 219.617 54.1158 218.056 56.5556C215.823 60.0442 214.168 70.2496 209.944 71.8333C208.025 72.5533 204.679 72 202.667 72C195.607 72 188.604 72.0784 181.611 70.9445C178.891 70.5034 176.175 69.1434 175 66.5C174.785 66.017 173.06 63.0463 173 64C172.59 70.5637 171.161 71.7707 164.111 72.7778C156.674 73.8402 148.373 73.0902 140.889 73C129.572 72.8637 122.182 69.1789 113 63.7778C111.771 63.055 108.762 54.0568 107.944 58.5556C106.921 64.1868 102.71 65.4505 98.7222 68.5C94.5409 71.6975 92.7782 75.0758 86.5556 73.9445C82.7777 73.2576 80.0988 69.1235 78 66.5C76.7105 64.8881 76 58.9345 76 63.7778C76 77.859 58.4966 68.6835 50.5 67C45.4643 65.9399 41 63.1727 41 57.5C41 55.5982 42.6837 55.5091 42.9444 53.9445Z" fill="white" stroke="#4CA4D5" stroke-linecap="round"/>
</svg>
