<svg width="136" height="317" viewBox="0 0 136 317" fill="none" xmlns="http://www.w3.org/2000/svg">
<ellipse cx="70" cy="16.5" rx="14" ry="16.5" fill="#14A3E0"/>
<ellipse cx="45.9743" cy="21.0631" rx="14" ry="16.5" transform="rotate(-27.0644 45.9743 21.0631)" fill="#14A3E0"/>
<path d="M40.2558 39.3303C35.6725 51.1164 24.8481 52.1072 17.4306 49.2227C10.0131 46.3383 6.16744 38.4263 8.84112 31.5508C11.5148 24.6753 19.6953 21.4398 27.1128 24.3243C34.5303 27.2087 42.9294 32.4548 40.2558 39.3303Z" fill="#14A3E0"/>
<path d="M33.8318 55.4479C37.6759 67.4953 29.8802 75.0701 22.2983 77.4894C14.7163 79.9087 6.75196 76.1726 4.50945 69.1446C2.26693 62.1167 6.59541 54.4581 14.1774 52.0388C21.7594 49.6195 31.5893 48.4199 33.8318 55.4479Z" fill="#14A3E0"/>
<path d="M49.867 70.4274C53.3484 75.5327 53.7726 80.3611 52.559 84.4486C51.3394 88.5559 48.4515 91.9599 45.2398 94.1499C38.8626 98.4987 30.4844 97.202 26.5035 91.3642C22.5227 85.5264 24.3751 77.2534 30.7524 72.9046C34.0193 70.6769 37.8702 68.6079 41.3892 67.8401C44.8984 67.0745 47.9512 67.6179 49.867 70.4274Z" fill="#14A3E0" stroke="black"/>
<ellipse cx="95.405" cy="23.7053" rx="14" ry="16.5" transform="rotate(23.421 95.405 23.7053)" fill="#14A3E0"/>
<ellipse cx="114.405" cy="43.7053" rx="14" ry="16.5" transform="rotate(55.6602 114.405 43.7053)" fill="#14A3E0"/>
<ellipse cx="108.522" cy="71.8675" rx="14" ry="16.5" transform="rotate(103.347 108.522 71.8675)" fill="#14A3E0"/>
<ellipse cx="82.2863" cy="83.4309" rx="14" ry="16.5" transform="rotate(153.526 82.2863 83.4309)" fill="#14A3E0"/>
<path d="M101.5 54.5C101.5 61.3364 97.5888 67.5743 91.1668 72.1232C84.7461 76.6712 75.8498 79.5 66 79.5C56.1502 79.5 47.2539 76.6712 40.8332 72.1232C34.4112 67.5743 30.5 61.3364 30.5 54.5C30.5 47.6636 34.4112 41.4257 40.8332 36.8768C47.2539 32.3288 56.1502 29.5 66 29.5C75.8498 29.5 84.7461 32.3288 91.1668 36.8768C97.5888 41.4257 101.5 47.6636 101.5 54.5Z" fill="#F8E42F" stroke="black"/>
<path d="M60 316L52 263V228V193V169.5V146L54.75 124L57 146L52 169.5V193V228L60 263L70 316H60Z" fill="#127B29"/>
<path d="M60 82L57.375 103L54.75 124M52 228V193V169.5M52 228V263L60 316H70L60 263L52 228ZM52 228L57 197M52 169.5V146L54.75 124M52 169.5L57 146L54.75 124" stroke="#127B29"/>
<path d="M57 197L52 160" stroke="#127B29"/>
<path d="M49 94L61 82L42 94L37 104L42 116L49 94Z" fill="#127B29"/>
<path d="M61 82C76.2 101.2 71.3333 112.667 67 116M61 82L49 94L42 116L37 104L42 94L61 82Z" stroke="#127B29"/>
</svg>
